/* XPM */
static char *yajhfc[] = {
/* columns rows colors chars-per-pixel */
"32 32 89 1",
"  c gray12",
". c #373737",
"X c #3B3B3B",
"o c #444444",
"O c #4B4B4B",
"+ c gray32",
"@ c gray37",
"# c #636363",
"$ c gray42",
"% c #737373",
"& c #797979",
"* c #DF6363",
"= c #DD7777",
"- c #E07474",
"; c #09C709",
": c #46BA46",
"> c #5EBD5C",
", c #62BB62",
"< c #74C274",
"1 c #7FC57E",
"2 c #79DD79",
"3 c #286CC6",
"4 c #3475CB",
"5 c #568BD3",
"6 c gray52",
"7 c #8C8C8C",
"8 c #949494",
"9 c #9D9D9D",
"0 c #A09F9E",
"q c #87BF88",
"w c #95BC95",
"e c #A2A2A2",
"r c #ACACAB",
"t c #B5B5B5",
"y c #BCBCBC",
"u c #DB8383",
"i c #DA8F8F",
"p c #DD9595",
"a c #DE9999",
"s c #DDA0A0",
"d c #DCBABA",
"f c #9CC79B",
"g c #ABC5AB",
"h c #AECCAE",
"j c #BBC8BB",
"k c #84A3D6",
"l c #92AEDD",
"z c #96B0DE",
"x c #9EBAE1",
"c c #B0C7E2",
"v c #B8C7E2",
"b c #B5CCE5",
"n c #BBCDE1",
"m c #B8CFE8",
"M c #BCD3EC",
"N c #C4C4C4",
"B c #C7CFC7",
"V c #CBCBCB",
"C c #DEC3C3",
"Z c #CED0D3",
"A c #CFD2D9",
"S c #D3D3D3",
"D c #DFD2D2",
"F c #D2D5DC",
"G c #DAD7DA",
"H c #D5D8DF",
"J c #DBDBDB",
"K c #E3DADA",
"L c #E4E1DD",
"P c #D6D9E0",
"I c #DADBE2",
"U c #DEE3E3",
"Y c #E4E4E4",
"T c #E9E6E2",
"R c #EEEAE6",
"E c #E4E6EC",
"W c #E7E8E8",
"Q c #EBECEC",
"! c #F2EEEB",
"~ c #F5F2ED",
"^ c #E4EDF7",
"/ c #E8ECF3",
"( c #ECF3F3",
") c #F3F3F3",
"_ c #F9F6F2",
"` c #FCF9F5",
"' c #F5F7FB",
"] c #FDFDFD",
"[ c None",
/* pixels */
"[[[[[[[[[[[[)QQQWWWWWWWWJ[[[[[[[",
"[[[[[[[[[[[[]]]]]]]]]]]]).[[[[[[",
"[[[[[[[[[[[['''']]]]]]]])X[[[[[[",
"[[[[[[[[[[+rQ))_'']]]]]]W9.[[[[[",
"[[[[[[[[[[@NWQQQQQQ))))_YyO[[[[[",
"[[[[[[[[[[%VYYYWWWWQQQQ)Yy#[[[[[",
"[[[[[[[&')SVWYWWWQQQQQ))YNyt8[[[",
"[NGV#[$9]]V0rrrrrrrrrrrre9ySy[[[",
"8]]]SJyY'/EIIIPHHFFFFAAZSVjGYy[[",
"9]]]SNt]vklllllllllllllzJ12<SY&[",
"9]''VyV]x344444444444445I>;:GY7[",
"9]))VyG]^MMMMMMMmmbbbbcnJSgBGG6[",
"9')QVyG]]]]]``_~~~!RRTTLJJJGSS7[",
"9)QWNyW]]'')))QQQJSGYGSSGSSVSS7[",
"9QWYNyW]'_)))QQQWSSSSVGVSVJNVV7[",
"eQYYNyQ]_))QQQWWYYSSJSVSSVVVVV7[",
"eYJJyyQ'))QQQWWYYSVGSVSVSVGNVV7[",
"eYGSyyQ))QQQWWYYYJVSSVSSVVVNNN7[",
"eJSSyyQ)QQQWWYYYJSVSSVSVVVSNNN7[",
"eGVVtNQ)QWWYYYJJJSSSVVGVVNGNNN7[",
"eSVNtNW(KpDiKJwSJSVVSVNVVVVyyy7[",
"eVNNtyW(=-u*Eq,JGVSGVNJVNVJNyy7[",
"eVNyrNZQaCsdYfhJSSVSVVVVNNNyye%[",
"#treyWNVUYYUGJJSSVVVVNNNNNyt9% [",
"[YVVQ)QSNVSSSSSSSVVVNNyyre8&o[[[",
"[J)WYJGSVyrryyyytttrreeerrO[[[[[",
"[[[[[[[[[[.yQ')WYJJJJYQ))VX[[[[[",
"[[[[[[[[[[[N)]]]]]]]'))QQSo[[[[[",
"[[[[[[[[[[[V)]]]'))))QQWWGO[[[[[",
"[[[[[[[[[[[YQQQQQQQQQQWYYQO[[[[[",
"[[[[[[[[[[[yVVVVVVVVVVVVVV[[[[[[",
"[[[[[[[[[[[[[[[[[[[[[[[[[[[[[[[["
};
